<svg width="24" height="24" viewBox="0 0 24 24" fill="none" xmlns="http://www.w3.org/2000/svg">
<path fill-rule="evenodd" clip-rule="evenodd" d="M12 0C5.37258 0 0 5.37258 0 12C0 18.6274 5.37258 24 12 24C18.6274 24 24 18.6274 24 12C24 5.37258 18.6274 0 12 0ZM9.36161 5.63876C10.0443 5.6077 10.2624 5.6001 12.0006 5.6001H11.9986C13.7373 5.6001 13.9546 5.6077 14.6373 5.63876C15.3186 5.66997 15.7839 5.77783 16.192 5.9361C16.6133 6.09943 16.9693 6.31811 17.3253 6.67411C17.6813 7.02985 17.9 7.38692 18.064 7.80785C18.2213 8.21479 18.3293 8.67986 18.3613 9.36121C18.392 10.0439 18.4 10.262 18.4 12.0002C18.4 13.7383 18.392 13.9559 18.3613 14.6386C18.3293 15.3197 18.2213 15.7849 18.064 16.1919C17.9 16.6127 17.6813 16.9698 17.3253 17.3256C16.9697 17.6816 16.6132 17.9008 16.1924 18.0642C15.7851 18.2225 15.3195 18.3304 14.6382 18.3616C13.9555 18.3926 13.7381 18.4002 11.9998 18.4002C10.2618 18.4002 10.0438 18.3926 9.36108 18.3616C8.67987 18.3304 8.21467 18.2225 7.80747 18.0642C7.38679 17.9008 7.02972 17.6816 6.67412 17.3256C6.31825 16.9698 6.09958 16.6127 5.93598 16.1918C5.77784 15.7849 5.66998 15.3198 5.63864 14.6385C5.60771 13.9558 5.59998 13.7383 5.59998 12.0002C5.59998 10.262 5.60798 10.0437 5.63851 9.36107C5.66918 8.67999 5.77718 8.21479 5.93585 7.80772C6.09985 7.38692 6.31852 7.02985 6.67452 6.67411C7.03026 6.31824 7.38733 6.09957 7.80827 5.9361C8.2152 5.77783 8.68027 5.66997 9.36161 5.63876Z" fill="white"/>
<path fill-rule="evenodd" clip-rule="evenodd" d="M11.4265 6.75356C11.538 6.75338 11.6579 6.75343 11.7873 6.75349L12.0006 6.75356C13.7094 6.75356 13.912 6.75969 14.5868 6.79035C15.2108 6.81889 15.5495 6.92316 15.7751 7.01076C16.0737 7.12675 16.2867 7.26543 16.5105 7.48943C16.7345 7.71343 16.8732 7.92677 16.9895 8.22543C17.0771 8.45077 17.1815 8.78944 17.2099 9.41344C17.2405 10.0881 17.2472 10.2908 17.2472 11.9988C17.2472 13.7068 17.2405 13.9095 17.2099 14.5842C17.1813 15.2082 17.0771 15.5468 16.9895 15.7722C16.8735 16.0708 16.7345 16.2835 16.5105 16.5074C16.2865 16.7314 16.0739 16.8701 15.7751 16.9861C15.5497 17.0741 15.2108 17.1781 14.5868 17.2066C13.9121 17.2373 13.7094 17.2439 12.0006 17.2439C10.2917 17.2439 10.0891 17.2373 9.41447 17.2066C8.79046 17.1778 8.45179 17.0735 8.22605 16.9859C7.92739 16.8699 7.71405 16.7313 7.49005 16.5073C7.26604 16.2832 7.12738 16.0704 7.01111 15.7716C6.92351 15.5463 6.81911 15.2076 6.79071 14.5836C6.76004 13.909 6.75391 13.7063 6.75391 11.9972C6.75391 10.2881 6.76004 10.0865 6.79071 9.41185C6.81924 8.78784 6.92351 8.44917 7.01111 8.22357C7.12711 7.9249 7.26604 7.71156 7.49005 7.48756C7.71405 7.26356 7.92739 7.12489 8.22605 7.00862C8.45166 6.92062 8.79046 6.81662 9.41447 6.78796C10.0049 6.76128 10.2337 6.75329 11.4265 6.75195V6.75356ZM15.4169 7.8157C14.9929 7.8157 14.6489 8.1593 14.6489 8.58344C14.6489 9.00744 14.9929 9.35145 15.4169 9.35145C15.8409 9.35145 16.1849 9.00744 16.1849 8.58344C16.1849 8.15943 15.8409 7.81543 15.4169 7.81543V7.8157ZM8.71387 11.9996C8.71387 10.1846 10.1854 8.71296 12.0004 8.71289C13.8155 8.71289 15.2867 10.1845 15.2867 11.9996C15.2867 13.8147 13.8157 15.2856 12.0006 15.2856C10.1855 15.2856 8.71387 13.8147 8.71387 11.9996Z" fill="white"/>
<path d="M12.0005 9.8667C13.1787 9.8667 14.1339 10.8218 14.1339 12.0001C14.1339 13.1782 13.1787 14.1334 12.0005 14.1334C10.8223 14.1334 9.86719 13.1782 9.86719 12.0001C9.86719 10.8218 10.8223 9.8667 12.0005 9.8667Z" fill="white"/>
</svg>
