<svg width="1600" height="1200" viewBox="0 0 1600 1200" fill="none" xmlns="http://www.w3.org/2000/svg">
<rect width="1600" height="1200" fill="white"/>
<rect width="1600" height="1200" fill="#E6E9F3"/>
<mask id="mask0" mask-type="alpha" maskUnits="userSpaceOnUse" x="0" y="0" width="1600" height="1200">
<rect width="1600" height="1200" fill="#E6E9F3"/>
</mask>
<g mask="url(#mask0)">
<path d="M388.25 1000.56C564.849 1162.29 816.421 1126.79 996.175 937.537C1175.93 748.283 1139.88 452.175 931.424 329.794C722.963 207.413 493.096 211.764 323.499 392.815C153.901 573.865 211.652 838.83 388.25 1000.56Z" fill="#EFF3F0"/>
<path d="M1398.29 150.016C1493.58 202.247 1611.52 206.888 1681.38 120.618C1751.24 34.3471 1737.76 -92.3627 1651.28 -162.397C1564.79 -232.431 1444.52 -199.234 1368.19 -132.999C1291.87 -66.7632 1303.01 97.7849 1398.29 150.016Z" fill="#EFF3F0"/>
<path d="M1750.34 737.054C1868.89 833.056 1868.98 990.604 1791.2 1125.5C1713.43 1260.39 1581.42 1384.56 1489.33 1498.28C1397.24 1612 1227.03 1641.22 1100.88 1539.07C974.731 1436.92 955.072 1254.32 1060.01 1150.63C1164.95 1046.93 1249.62 890.579 1361.89 777.843C1474.15 665.107 1631.78 641.052 1750.34 737.054Z" fill="#EFF3F0"/>
<path d="M162.945 394.697C257.478 471.248 385.844 453.927 459.006 363.579C532.168 273.231 520.363 123.905 427.889 67.5181C335.415 11.1311 199.218 -10.3319 131.828 98.6354C64.4372 207.603 68.4125 318.146 162.945 394.697Z" fill="#E0436B"/>
<path d="M453.019 1085.22C483.002 1109.5 523.725 1103.99 546.941 1075.32C570.157 1046.65 566.423 999.278 537.091 981.395C507.76 963.512 464.556 956.713 443.169 991.289C421.783 1025.87 423.036 1060.94 453.019 1085.22Z" fill="#E0436B"/>
<path d="M49.4306 113.292C69.1209 129.236 95.8643 125.621 111.111 106.794C126.357 87.9662 123.905 56.8545 104.642 45.1107C85.3799 33.3669 57.0071 28.9016 42.9623 51.6084C28.9175 74.3151 29.7403 97.3467 49.4306 113.292Z" fill="#E0436B"/>
<path d="M587.076 995.934C575.707 1000.19 571.521 1012.37 575.932 1024.84C580.343 1037.32 594.547 1042.5 604.872 1035.9C615.197 1029.3 620.29 1018.82 616.016 1007C611.742 995.169 598.445 991.68 587.076 995.934Z" fill="#E0436B"/>
<path d="M1247.45 205.507C1297.12 245.732 1364.59 236.612 1403.05 189.116C1441.51 141.619 1435.33 63.1321 1386.73 33.5057C1338.14 3.87928 1266.56 -7.38525 1231.13 49.8977C1195.7 107.181 1197.78 165.283 1247.45 205.507Z" fill="#7252A4"/>
<path d="M511.431 397.292C531.121 413.236 557.864 409.621 573.111 390.794C588.357 371.966 585.905 340.854 566.642 329.111C547.38 317.367 519.007 312.902 504.962 335.608C490.918 358.315 491.74 381.347 511.431 397.292Z" fill="#7252A4"/>
<path d="M599.47 401.588C608.42 408.835 620.576 407.192 627.506 398.634C634.436 390.076 633.322 375.934 624.566 370.596C615.81 365.258 602.914 363.229 596.53 373.55C590.146 383.871 590.52 394.34 599.47 401.588Z" fill="#7252A4"/>
<path d="M926.313 1259.89C958.856 1286.25 1018.22 1253.28 1054.72 1217.55C1091.23 1181.82 1086.09 1118.05 1040.87 1088.1C995.637 1058.15 943.297 1062.02 911.362 1101.46C879.427 1140.89 893.769 1233.54 926.313 1259.89Z" fill="#7252A4"/>
<path d="M347.762 826.254C419.783 892.211 522.38 877.735 595.689 800.552C668.997 723.368 654.298 602.608 569.283 552.699C484.268 502.79 390.523 504.564 321.356 578.402C252.19 652.239 275.741 760.298 347.762 826.254Z" fill="#F0C933"/>
<path d="M1420.89 782.957C1448.16 807.924 1486.99 802.444 1514.74 773.228C1542.49 744.011 1536.93 698.298 1504.75 679.405C1472.57 660.513 1437.08 661.184 1410.9 689.134C1384.72 717.085 1393.63 757.989 1420.89 782.957Z" fill="#F0C933"/>
<path d="M575.174 873.06C584.126 881.258 596.879 879.459 605.991 869.865C615.103 860.271 613.276 845.261 602.709 839.058C592.141 832.854 580.489 833.075 571.892 842.252C563.295 851.43 566.222 864.861 575.174 873.06Z" fill="#F0C933"/>
<path d="M1490.17 842.06C1499.13 850.258 1511.88 848.459 1520.99 838.865C1530.1 829.271 1528.28 814.261 1517.71 808.058C1507.14 801.854 1495.49 802.075 1486.89 811.252C1478.29 820.43 1481.22 833.861 1490.17 842.06Z" fill="#F0C933"/>
<path d="M609.088 818.531C613.564 822.63 619.94 821.73 624.496 816.933C629.052 812.137 628.139 804.632 622.855 801.53C617.572 798.428 611.746 798.538 607.447 803.127C603.148 807.716 604.612 814.432 609.088 818.531Z" fill="#F0C933"/>
<path d="M874.894 559.957C902.157 584.924 940.994 579.444 968.744 550.228C996.494 521.011 990.93 475.298 958.748 456.405C926.566 437.513 891.08 438.184 864.898 466.134C838.716 494.085 847.631 534.989 874.894 559.957Z" fill="#453264"/>
<path d="M127.174 496.06C136.126 504.258 148.879 502.459 157.991 492.865C167.103 483.271 165.276 468.261 154.709 462.058C144.141 455.854 132.489 456.075 123.892 465.252C115.295 474.43 118.222 487.861 127.174 496.06Z" fill="#453264"/>
<path d="M1383.17 999.06C1392.13 1007.26 1404.88 1005.46 1413.99 995.865C1423.1 986.271 1421.28 971.261 1410.71 965.058C1400.14 958.854 1388.49 959.075 1379.89 968.252C1371.29 977.43 1374.22 990.861 1383.17 999.06Z" fill="#453264"/>
<path d="M859.437 592.023C853.28 602.483 857.691 614.583 868.969 621.501C880.248 628.42 894.55 623.512 898.421 611.886C902.292 600.26 899.654 588.908 888.889 582.407C878.125 575.906 865.595 581.562 859.437 592.023Z" fill="#453264"/>
<path d="M1541.89 382.957C1569.16 407.924 1607.99 402.444 1635.74 373.228C1663.49 344.011 1657.93 298.298 1625.75 279.405C1593.57 260.513 1558.08 261.184 1531.9 289.134C1505.72 317.085 1514.63 357.989 1541.89 382.957Z" fill="#0F90D1"/>
<path d="M-63.1323 1353.31C43.531 1439.69 213.789 1419.71 322.628 1313.12C431.467 1206.54 416.359 1016.54 281.735 927.435C147.112 838.334 -8.79259 850.022 -104.025 967.625C-199.258 1085.23 -169.796 1266.94 -63.1323 1353.31Z" fill="#0F90D1"/>
<path d="M1490.94 370.49C1577.43 440.524 1577.48 555.47 1520.73 653.893C1463.98 752.315 1367.66 842.915 1300.46 925.894C1233.27 1008.87 1109.09 1030.2 1017.06 955.681C925.037 881.16 910.707 747.937 987.275 672.278C1063.84 596.618 1125.63 482.536 1207.54 400.276C1289.45 318.017 1404.46 300.455 1490.94 370.49Z" fill="#0F90D1"/>
<path d="M1056.63 348.682C1093.45 382.406 1145.91 375.005 1183.39 335.54C1220.88 296.076 1213.36 234.33 1169.89 208.81C1126.42 183.291 1078.49 184.198 1043.12 221.952C1007.76 259.705 1019.8 314.957 1056.63 348.682Z" fill="#C4C8D4"/>
<path d="M-220.854 1017.32C-119.941 1109.74 23.8148 1089.45 126.532 981.308C229.248 873.163 208.651 703.958 89.5306 634.026C-29.59 564.095 -160.942 566.581 -257.855 670.038C-354.768 773.495 -321.768 924.904 -220.854 1017.32Z" fill="#C4C8D4"/>
<path d="M1510.15 1402.32C1611.06 1494.74 1754.81 1474.45 1857.53 1366.31C1960.25 1258.16 1939.65 1088.96 1820.53 1019.03C1701.41 949.095 1570.06 951.581 1473.14 1055.04C1376.23 1158.5 1409.23 1309.9 1510.15 1402.32Z" fill="#C4C8D4"/>
<path d="M1437.56 250.478C1453.1 258.988 1472.34 259.727 1483.75 245.636C1495.16 231.544 1492.98 210.865 1478.89 199.448C1464.79 188.03 1445.16 193.467 1432.69 204.29C1420.23 215.112 1422.02 241.967 1437.56 250.478Z" fill="#EFF3F0"/>
<path d="M1164.69 76.1566C1174.11 81.3144 1185.77 81.7625 1192.69 73.2223C1199.6 64.682 1198.28 52.1492 1189.74 45.2296C1181.19 38.3099 1169.3 41.6049 1161.74 48.1639C1154.19 54.7229 1155.28 70.9988 1164.69 76.1566Z" fill="#EFF3F0"/>
<path d="M1074.93 -252.317C1161.41 -182.283 1174.75 -55.399 1104.71 31.086C1034.68 117.571 942.222 211.09 884.452 303.087C826.681 395.085 679.025 413.359 601.049 332.874C523.072 252.389 493.162 145.916 571.262 49.471C649.361 -46.974 714.781 -127.761 791.524 -222.53C868.267 -317.299 988.442 -322.351 1074.93 -252.317Z" fill="#6759AE"/>
</g>
</svg>
