<svg width="120" height="120" viewBox="0 0 120 120" fill="none" xmlns="http://www.w3.org/2000/svg">
<circle cx="60" cy="60" r="60" fill="#0FD1A2"/>
<path d="M65.3518 63.8594C65.3518 57.5486 66.8586 52.6079 69.8722 49.0374C72.9271 45.4668 77.1998 43.121 82.6904 42V48.4769C78.5209 49.7639 75.7137 52.089 74.2688 55.452C73.4431 57.2372 73.1129 58.9603 73.278 60.621H83V77H65.3518V63.8594ZM36 63.8594C36 57.6317 37.4655 52.7117 40.3966 49.0996C43.3689 45.4875 47.6829 43.121 53.3386 42V48.4769C49.1278 49.8055 46.3 52.089 44.8551 55.3274C44.112 57.0297 43.8024 58.7942 43.9262 60.621H53.6482V77H36V63.8594Z" fill="white"/>
</svg>
